<?xml version="1.0" standalone="no"?>
<!DOCTYPE svg PUBLIC "-//W3C//DTD SVG 20010904//EN"
 "http://www.w3.org/TR/2001/REC-SVG-20010904/DTD/svg10.dtd">
<svg version="1.0" xmlns="http://www.w3.org/2000/svg"
 width="64.000000pt" height="64.000000pt" viewBox="0 0 64.000000 64.000000"
 preserveAspectRatio="xMidYMid meet">

<g transform="translate(0.000000,64.000000) scale(0.100000,-0.100000)"
fill="#000000" stroke="none">
<path d="M0 320 l0 -320 320 0 320 0 0 320 0 320 -320 0 -320 0 0 -320z m405
9 c44 -83 82 -155 83 -160 2 -5 -10 -9 -26 -9 -28 0 -34 7 -83 100 -30 55 -56
100 -59 100 -3 0 -29 -45 -58 -100 -50 -93 -56 -100 -84 -100 -16 0 -28 4 -26
9 9 25 164 311 168 311 3 0 41 -68 85 -151z"/>
</g>
</svg>
